<svg xmlns="http://www.w3.org/2000/svg" width="800" height="520" viewBox="0 0 800 520" role="img" aria-label="照片局部換色" data-huesense-template="09_photo_editor" style="--hs-background: #F7F6F2; --hs-primary: #545EDB; --hs-secondary: #6DBDB3; --hs-accent: #FF9972; --hs-ink: #29334A">
<title>Photo Editor</title>
<desc>HueSense original editable vector illustration; recolor via five data-role tokens</desc>
<rect x="0" y="0" width="800" height="520" rx="0" fill="#F7F6F2" data-role="background"/><circle cx="708" cy="84" r="122" fill="#6DBDB3" data-role="secondary" opacity="0.1"/><circle cx="76" cy="442" r="144" fill="#FF9972" data-role="accent" opacity="0.12"/><ellipse cx="401" cy="448" rx="291" ry="21" fill="#29334A" data-role="ink" opacity="0.09"/><rect x="126" y="77" width="549" height="347" rx="24" fill="#29334A" data-role="ink"/><rect x="135" y="86" width="532" height="329" rx="18" fill="#F7F6F2" data-role="background"/><rect x="135" y="86" width="532" height="43" rx="16" fill="#545EDB" data-role="primary"/><circle cx="164" cy="107" r="6" fill="#F7F6F2" data-role="background" opacity="0.32"/><circle cx="183" cy="107" r="6" fill="#F7F6F2" data-role="background" opacity="0.32"/><circle cx="202" cy="107" r="6" fill="#F7F6F2" data-role="background" opacity="0.32"/><rect x="159" y="152" width="332" height="226" rx="14" fill="#6DBDB3" data-role="secondary" opacity="0.34"/><circle cx="414" cy="212" r="34" fill="#FF9972" data-role="accent"/><path d="M 159 357 L 253 232 L 324 322 L 379 272 L 492 366 L 492 378 L 159 378Z" fill="#545EDB" data-role="primary"/><path d="M 217 378 L 321 266 L 358 319 L 406 288 L 491 378Z" fill="#6DBDB3" data-role="secondary"/><path d="M 233 233 Q 263 189 342 220 Q 412 242 408 319 Q 353 364 271 341Z" fill="#F7F6F2" data-role="background" opacity="0.15"/><path d="M 221 239 Q 267 185 344 216 Q 412 245 405 318 Q 357 363 270 341Z" fill="none" stroke="#FF9972" data-stroke-role="accent" stroke-width="6" stroke-linecap="round" stroke-linejoin="round" stroke-dasharray="10 10"  /><rect x="517" y="156" width="126" height="13" rx="5" fill="#29334A" data-role="ink" opacity="0.3"/><rect x="516" y="187" width="125" height="25" rx="7" fill="#F7F6F2" data-role="background" stroke="#29334A" data-stroke-role="ink" stroke-width="2"/><circle cx="539" cy="200" r="10" fill="#545EDB" data-role="primary"/><rect x="562" y="196" width="56" height="8" rx="4" fill="#29334A" data-role="ink" opacity="0.15"/><rect x="516" y="223" width="125" height="25" rx="7" fill="#F7F6F2" data-role="background" stroke="#29334A" data-stroke-role="ink" stroke-width="2"/><circle cx="539" cy="236" r="10" fill="#6DBDB3" data-role="secondary"/><rect x="562" y="232" width="56" height="8" rx="4" fill="#29334A" data-role="ink" opacity="0.15"/><rect x="516" y="259" width="125" height="25" rx="7" fill="#F7F6F2" data-role="background" stroke="#29334A" data-stroke-role="ink" stroke-width="2"/><circle cx="539" cy="272" r="10" fill="#FF9972" data-role="accent"/><rect x="562" y="268" width="56" height="8" rx="4" fill="#29334A" data-role="ink" opacity="0.15"/><rect x="516" y="295" width="125" height="25" rx="7" fill="#F7F6F2" data-role="background" stroke="#29334A" data-stroke-role="ink" stroke-width="2"/><circle cx="539" cy="308" r="10" fill="#29334A" data-role="ink"/><rect x="562" y="304" width="56" height="8" rx="4" fill="#29334A" data-role="ink" opacity="0.15"/><path d="M709 168 Q713 189 734 193 Q713 197 709 218 Q705 197 684 193 Q705 189 709 168Z" fill="#FF9972" data-role="accent"/>
</svg>