<svg xmlns="http://www.w3.org/2000/svg" width="800" height="520" viewBox="0 0 800 520" role="img" aria-label="數位工作流程" data-huesense-template="10_data_flow" style="--hs-background: #F7F6F2; --hs-primary: #545EDB; --hs-secondary: #6DBDB3; --hs-accent: #FF9972; --hs-ink: #29334A">
<title>Data Flow</title>
<desc>HueSense original editable vector illustration; recolor via five data-role tokens</desc>
<rect x="0" y="0" width="800" height="520" rx="0" fill="#F7F6F2" data-role="background"/><circle cx="708" cy="84" r="122" fill="#6DBDB3" data-role="secondary" opacity="0.1"/><circle cx="76" cy="442" r="144" fill="#FF9972" data-role="accent" opacity="0.12"/><ellipse cx="409" cy="452" rx="292" ry="22" fill="#29334A" data-role="ink" opacity="0.07"/><path d="M 234 252 C 311 252 285 151 394 151 S 496 252 585 252" fill="none" stroke="#545EDB" data-stroke-role="primary" stroke-width="7" stroke-linecap="round" stroke-linejoin="round"   /><path d="M 234 252 C 318 252 293 364 394 364 S 503 252 585 252" fill="none" stroke="#6DBDB3" data-stroke-role="secondary" stroke-width="7" stroke-linecap="round" stroke-linejoin="round"   /><rect x="101" y="178" width="154" height="151" rx="18" fill="#F7F6F2" data-role="background" stroke="#29334A" data-stroke-role="ink" stroke-width="4"/><circle cx="176" cy="224" r="28" fill="#FF9972" data-role="accent"/><rect x="129" y="270" width="98" height="12" rx="6" fill="#29334A" data-role="ink" opacity="0.38"/><rect x="144" y="293" width="68" height="9" rx="5" fill="#29334A" data-role="ink" opacity="0.2"/><rect x="335" y="80" width="160" height="144" rx="18" fill="#F7F6F2" data-role="background" stroke="#29334A" data-stroke-role="ink" stroke-width="4"/><circle cx="415" cy="123" r="25" fill="#6DBDB3" data-role="secondary"/><rect x="371" y="163" width="89" height="11" rx="5" fill="#29334A" data-role="ink" opacity="0.34"/><rect x="337" y="294" width="160" height="143" rx="18" fill="#F7F6F2" data-role="background" stroke="#29334A" data-stroke-role="ink" stroke-width="4"/><circle cx="416" cy="338" r="25" fill="#545EDB" data-role="primary"/><rect x="371" y="376" width="89" height="11" rx="5" fill="#29334A" data-role="ink" opacity="0.34"/><rect x="564" y="179" width="157" height="149" rx="18" fill="#F7F6F2" data-role="background" stroke="#29334A" data-stroke-role="ink" stroke-width="4"/><circle cx="641" cy="224" r="28" fill="#FF9972" data-role="accent"/><text x="601" y="289"  fill="#29334A" data-role="ink" font-size="22" font-family="Arial, Helvetica, sans-serif" font-weight="800" >DONE</text><circle cx="286" cy="252" r="12" fill="#FF9972" data-role="accent"/><circle cx="532" cy="252" r="12" fill="#FF9972" data-role="accent"/><path d="M241 75 Q245 93 263 97 Q245 101 241 119 Q237 101 219 97 Q237 93 241 75Z" fill="#FF9972" data-role="accent"/>
</svg>