<svg xmlns="http://www.w3.org/2000/svg" width="600" height="760" viewBox="0 0 600 760" role="img" aria-label="嶄新地平線" data-huesense-template="p04_new_horizon"><rect x="0" y="0" width="600" height="760" rx="0" fill="#F7F6F2" data-role="background"/><rect x="54" y="147" width="493" height="414" rx="0" fill="#545EDB" data-role="primary"/><circle cx="305" cy="360" r="177" fill="#FF9972" data-role="accent"/><rect x="54" y="356" width="493" height="205" rx="0" fill="#6DBDB3" data-role="secondary"/><line x1="54" y1="393" x2="547" y2="393" stroke-width="6" stroke="#F7F6F2" data-stroke-role="background"/><line x1="54" y1="423" x2="547" y2="423" stroke-width="6" stroke="#F7F6F2" data-stroke-role="background"/><line x1="54" y1="453" x2="547" y2="453" stroke-width="6" stroke="#F7F6F2" data-stroke-role="background"/><line x1="54" y1="483" x2="547" y2="483" stroke-width="6" stroke="#F7F6F2" data-stroke-role="background"/><line x1="54" y1="513" x2="547" y2="513" stroke-width="6" stroke="#F7F6F2" data-stroke-role="background"/><line x1="54" y1="543" x2="547" y2="543" stroke-width="6" stroke="#F7F6F2" data-stroke-role="background"/><path d="M54 356 L547 356" stroke-width="4" stroke="#29334A" data-stroke-role="ink"/><text x="42" y="56" font-family="Arial, Helvetica, sans-serif" font-size="13" font-weight="700" letter-spacing="2.3" fill="#29334A" data-role="ink" >HUESENSE  /  STUDIES</text><text x="555" y="55" font-family="Arial, Helvetica, sans-serif" font-size="12" font-weight="700" letter-spacing="0" fill="#29334A" data-role="ink" text-anchor="end">04 / 30</text><line x1="43" y1="649" x2="558" y2="649" stroke-width="1" opacity="0.38" stroke="#29334A" data-stroke-role="ink"/><text x="43" y="688" font-family="Arial, Helvetica, sans-serif" font-size="25" font-weight="800" letter-spacing="0.2" fill="#29334A" data-role="ink" >NEW HORIZON</text><text x="44" y="719" font-family="Arial, Helvetica, sans-serif" font-size="11" font-weight="600" letter-spacing="1.6" fill="#29334A" data-role="ink" >SUNSET / FORMS</text><text x="558" y="720" font-family="Arial, Helvetica, sans-serif" font-size="11" font-weight="700" letter-spacing="1" fill="#29334A" data-role="ink" text-anchor="end">HS / 2026</text></svg>