<svg xmlns="http://www.w3.org/2000/svg" width="600" height="760" viewBox="0 0 600 760" role="img" aria-label="幾何俱樂部" data-huesense-template="p19_geometry_club"><rect x="0" y="0" width="600" height="760" rx="0" fill="#F7F6F2" data-role="background"/><circle cx="117" cy="196" r="34" fill="#545EDB" data-role="primary"/><rect x="185" y="161" width="70" height="70" rx="0" fill="#6DBDB3" data-role="secondary"/><polygon points="323,161 358,196 323,231 288,196" fill="#FF9972" data-role="accent"/><polygon points="426,161 461,231 391,231" fill="#29334A" data-role="ink"/><circle cx="529" cy="196" r="34" fill="#545EDB" data-role="primary"/><rect x="82" y="258" width="70" height="70" rx="0" fill="#29334A" data-role="ink"/><polygon points="220,258 255,293 220,328 185,293" fill="#545EDB" data-role="primary"/><polygon points="323,258 358,328 288,328" fill="#6DBDB3" data-role="secondary"/><circle cx="426" cy="293" r="34" fill="#FF9972" data-role="accent"/><rect x="494" y="258" width="70" height="70" rx="0" fill="#29334A" data-role="ink"/><polygon points="117,355 152,390 117,425 82,390" fill="#FF9972" data-role="accent"/><polygon points="220,355 255,425 185,425" fill="#29334A" data-role="ink"/><circle cx="323" cy="390" r="34" fill="#545EDB" data-role="primary"/><rect x="391" y="355" width="70" height="70" rx="0" fill="#6DBDB3" data-role="secondary"/><polygon points="529,355 564,390 529,425 494,390" fill="#FF9972" data-role="accent"/><polygon points="117,452 152,522 82,522" fill="#6DBDB3" data-role="secondary"/><circle cx="220" cy="487" r="34" fill="#FF9972" data-role="accent"/><rect x="288" y="452" width="70" height="70" rx="0" fill="#29334A" data-role="ink"/><polygon points="426,452 461,487 426,522 391,487" fill="#545EDB" data-role="primary"/><polygon points="529,452 564,522 494,522" fill="#6DBDB3" data-role="secondary"/><circle cx="117" cy="584" r="34" fill="#545EDB" data-role="primary"/><rect x="185" y="549" width="70" height="70" rx="0" fill="#6DBDB3" data-role="secondary"/><polygon points="323,549 358,584 323,619 288,584" fill="#FF9972" data-role="accent"/><polygon points="426,549 461,619 391,619" fill="#29334A" data-role="ink"/><circle cx="529" cy="584" r="34" fill="#545EDB" data-role="primary"/><text x="42" y="56" font-family="Arial, Helvetica, sans-serif" font-size="13" font-weight="700" letter-spacing="2.3" fill="#29334A" data-role="ink" >HUESENSE  /  STUDIES</text><text x="555" y="55" font-family="Arial, Helvetica, sans-serif" font-size="12" font-weight="700" letter-spacing="0" fill="#29334A" data-role="ink" text-anchor="end">19 / 30</text><line x1="43" y1="649" x2="558" y2="649" stroke-width="1" opacity="0.38" stroke="#29334A" data-stroke-role="ink"/><text x="43" y="688" font-family="Arial, Helvetica, sans-serif" font-size="25" font-weight="800" letter-spacing="0.2" fill="#29334A" data-role="ink" >GEOMETRY CLUB</text><text x="44" y="719" font-family="Arial, Helvetica, sans-serif" font-size="11" font-weight="600" letter-spacing="1.6" fill="#29334A" data-role="ink" >SYMBOLS / REPEAT</text><text x="558" y="720" font-family="Arial, Helvetica, sans-serif" font-size="11" font-weight="700" letter-spacing="1" fill="#29334A" data-role="ink" text-anchor="end">HS / 2026</text></svg>