<svg xmlns="http://www.w3.org/2000/svg" width="600" height="760" viewBox="0 0 600 760" role="img" aria-label="斜向運動" data-huesense-template="p20_diagonal_motion"><rect x="0" y="0" width="600" height="760" rx="0" fill="#F7F6F2" data-role="background"/><rect x="53" y="150" width="494" height="425" rx="0" fill="#29334A" data-role="ink"/><path d="M-260 612 L240 110" stroke-width="43" stroke="#545EDB" data-stroke-role="primary"/><path d="M-170 612 L330 110" stroke-width="43" stroke="#FF9972" data-stroke-role="accent"/><path d="M-80 612 L420 110" stroke-width="43" stroke="#6DBDB3" data-stroke-role="secondary"/><path d="M10 612 L510 110" stroke-width="43" stroke="#F7F6F2" data-stroke-role="background"/><path d="M100 612 L600 110" stroke-width="43" stroke="#545EDB" data-stroke-role="primary"/><path d="M190 612 L690 110" stroke-width="43" stroke="#FF9972" data-stroke-role="accent"/><path d="M280 612 L780 110" stroke-width="43" stroke="#6DBDB3" data-stroke-role="secondary"/><path d="M370 612 L870 110" stroke-width="43" stroke="#F7F6F2" data-stroke-role="background"/><path d="M460 612 L960 110" stroke-width="43" stroke="#545EDB" data-stroke-role="primary"/><path d="M550 612 L1050 110" stroke-width="43" stroke="#FF9972" data-stroke-role="accent"/><path d="M640 612 L1140 110" stroke-width="43" stroke="#6DBDB3" data-stroke-role="secondary"/><path d="M730 612 L1230 110" stroke-width="43" stroke="#F7F6F2" data-stroke-role="background"/><path d="M820 612 L1320 110" stroke-width="43" stroke="#545EDB" data-stroke-role="primary"/><circle cx="292" cy="358" r="104" fill="#29334A" data-role="ink"/><circle cx="292" cy="358" r="74" fill="#F7F6F2" data-role="background"/><circle cx="292" cy="358" r="26" fill="#FF9972" data-role="accent"/><text x="42" y="56" font-family="Arial, Helvetica, sans-serif" font-size="13" font-weight="700" letter-spacing="2.3" fill="#29334A" data-role="ink" >HUESENSE  /  STUDIES</text><text x="555" y="55" font-family="Arial, Helvetica, sans-serif" font-size="12" font-weight="700" letter-spacing="0" fill="#29334A" data-role="ink" text-anchor="end">20 / 30</text><line x1="43" y1="649" x2="558" y2="649" stroke-width="1" opacity="0.38" stroke="#29334A" data-stroke-role="ink"/><text x="43" y="688" font-family="Arial, Helvetica, sans-serif" font-size="25" font-weight="800" letter-spacing="0.2" fill="#29334A" data-role="ink" >DIAGONAL MOTION</text><text x="44" y="719" font-family="Arial, Helvetica, sans-serif" font-size="11" font-weight="600" letter-spacing="1.6" fill="#29334A" data-role="ink" >RIBBONS / DIAGONAL</text><text x="558" y="720" font-family="Arial, Helvetica, sans-serif" font-size="11" font-weight="700" letter-spacing="1" fill="#29334A" data-role="ink" text-anchor="end">HS / 2026</text></svg>