<svg xmlns="http://www.w3.org/2000/svg" width="600" height="760" viewBox="0 0 600 760" role="img" aria-label="裝飾藝術日輪" data-huesense-template="p24_art_deco_sun"><rect x="0" y="0" width="600" height="760" rx="0" fill="#F7F6F2" data-role="background"/><rect x="66" y="133" width="470" height="447" rx="0" fill="#29334A" data-role="ink"/><path d="M275.0 583.0 A25 25 0 0 1 325.0 583.0" fill="none" stroke-width="8" stroke-linecap="round" stroke="#FF9972" data-stroke-role="accent"/><path d="M251.0 583.0 A49 49 0 0 1 349.0 583.0" fill="none" stroke-width="8" stroke-linecap="round" stroke="#545EDB" data-stroke-role="primary"/><path d="M227.0 583.0 A73 73 0 0 1 373.0 583.0" fill="none" stroke-width="8" stroke-linecap="round" stroke="#6DBDB3" data-stroke-role="secondary"/><path d="M203.0 583.0 A97 97 0 0 1 397.0 583.0" fill="none" stroke-width="8" stroke-linecap="round" stroke="#FF9972" data-stroke-role="accent"/><path d="M179.0 583.0 A121 121 0 0 1 421.0 583.0" fill="none" stroke-width="8" stroke-linecap="round" stroke="#545EDB" data-stroke-role="primary"/><path d="M155.0 583.0 A145 145 0 0 1 445.0 583.0" fill="none" stroke-width="8" stroke-linecap="round" stroke="#6DBDB3" data-stroke-role="secondary"/><path d="M131.0 583.0 A169 169 0 0 1 469.0 583.0" fill="none" stroke-width="8" stroke-linecap="round" stroke="#FF9972" data-stroke-role="accent"/><path d="M107.0 583.0 A193 193 0 0 1 493.0 583.0" fill="none" stroke-width="8" stroke-linecap="round" stroke="#545EDB" data-stroke-role="primary"/><path d="M83.0 583.0 A217 217 0 0 1 517.0 583.0" fill="none" stroke-width="8" stroke-linecap="round" stroke="#6DBDB3" data-stroke-role="secondary"/><rect x="66" y="583" width="470" height="8" rx="0" fill="#FF9972" data-role="accent"/><text x="42" y="56" font-family="Arial, Helvetica, sans-serif" font-size="13" font-weight="700" letter-spacing="2.3" fill="#29334A" data-role="ink" >HUESENSE  /  STUDIES</text><text x="555" y="55" font-family="Arial, Helvetica, sans-serif" font-size="12" font-weight="700" letter-spacing="0" fill="#29334A" data-role="ink" text-anchor="end">24 / 30</text><line x1="43" y1="649" x2="558" y2="649" stroke-width="1" opacity="0.38" stroke="#29334A" data-stroke-role="ink"/><text x="43" y="688" font-family="Arial, Helvetica, sans-serif" font-size="25" font-weight="800" letter-spacing="0.2" fill="#29334A" data-role="ink" >ART DECO SUN</text><text x="44" y="719" font-family="Arial, Helvetica, sans-serif" font-size="11" font-weight="600" letter-spacing="1.6" fill="#29334A" data-role="ink" >DECO / ARCHES</text><text x="558" y="720" font-family="Arial, Helvetica, sans-serif" font-size="11" font-weight="700" letter-spacing="1" fill="#29334A" data-role="ink" text-anchor="end">HS / 2026</text></svg>